<svg width="81" height="81" viewBox="0 0 81 81" fill="none" xmlns="http://www.w3.org/2000/svg">
<rect width="81" height="81" rx="40.5" fill="#D72130"/>
<path d="M29.5742 30.3018C29.5742 29.7495 30.0219 29.3018 30.5742 29.3018H50.6305C51.1828 29.3018 51.6305 29.7495 51.6305 30.3018V53.6598C51.6305 55.869 49.8396 57.6598 47.6305 57.6598H33.5742C31.3651 57.6598 29.5742 55.869 29.5742 53.6598V30.3018Z" fill="white"/>
<rect x="28" y="26.1504" width="25.2072" height="3.1509" rx="1" fill="white"/>
<rect x="35.0898" y="23" width="11.0281" height="3.1509" rx="1" fill="white"/>
<rect x="36.6641" y="24.5757" width="7.87724" height="1.57545" fill="#D72130"/>
<rect x="32.7246" y="31.665" width="1.57545" height="22.0563" rx="0.787724" fill="#D72130"/>
<rect x="39.8164" y="31.665" width="1.57545" height="22.0563" rx="0.787724" fill="#D72130"/>
<rect x="46.9043" y="31.665" width="1.57545" height="22.0563" rx="0.787724" fill="#D72130"/>
</svg>
