<svg width="34" height="34" viewBox="0 0 34 34" fill="none" xmlns="http://www.w3.org/2000/svg">
<path d="M17.001 34C26.3898 34 34.001 26.3888 34.001 17C34.001 7.61116 26.3898 0 17.001 0C7.61214 0 0.000976562 7.61116 0.000976562 17C0.000976562 26.3888 7.61214 34 17.001 34Z" fill="#D72130"/>
<path fill-rule="evenodd" clip-rule="evenodd" d="M11.2312 10.5337C11.4239 10.6081 11.5509 10.7935 11.5509 11V12.93L19.9609 12.93V13.93L11.0509 13.93C10.7748 13.93 10.5509 13.7061 10.5509 13.43V12.2933L7.67671 15.455L10.5509 18.6166V17.48C10.5509 17.2038 10.7748 16.98 11.0509 16.98L19.9609 16.98V17.98L11.5509 17.98L11.5509 19.9099C11.5509 20.1165 11.4239 20.3018 11.2312 20.3763C11.0386 20.4508 10.8199 20.3991 10.681 20.2463L6.63101 15.7913C6.45763 15.6006 6.45763 15.3094 6.63101 15.1186L10.681 10.6637C10.8199 10.5108 11.0386 10.4592 11.2312 10.5337Z" fill="white"/>
<path fill-rule="evenodd" clip-rule="evenodd" d="M21.8059 24.4263C21.6132 24.3518 21.4862 24.1665 21.4862 23.9599L21.4862 22.03L13.0762 22.03L13.0762 21.03L21.9862 21.03C22.2623 21.03 22.4862 21.2538 22.4862 21.53L22.4862 22.6666L25.3604 19.505L22.4862 16.3433L22.4862 17.48C22.4862 17.7561 22.2623 17.98 21.9862 17.98L13.0762 17.98L13.0762 16.98L21.4862 16.98L21.4862 15.05C21.4862 14.8434 21.6132 14.6581 21.8059 14.5837C21.9985 14.5092 22.2172 14.5608 22.3561 14.7137L26.4061 19.1686C26.5795 19.3594 26.5795 19.6506 26.4061 19.8413L22.3561 24.2963C22.2172 24.4491 21.9985 24.5008 21.8059 24.4263Z" fill="white"/>
</svg>
