<svg width="18" height="18" viewBox="0 0 18 18" fill="none" xmlns="http://www.w3.org/2000/svg">
<path d="M10.1284 17C9.68885 17 9.31344 16.76 9.09873 16.3459C9.06767 16.2847 9.05147 16.2141 9.05147 16.1435V14.0354C8.3945 11.8378 7.76657 10.4064 6.52353 9.59937C6.41685 9.52879 6.35068 9.39703 6.35068 9.25585V2.86697C6.35068 2.09914 7.5451 1.5415 8.05218 1.5415H14.2829C14.5888 1.5415 14.8879 1.72268 15.1465 2.06855C15.4827 2.51639 15.6954 3.16186 15.7015 3.71636C16.2079 4.14851 16.4442 4.90535 16.401 5.96965C16.9297 6.61434 16.9168 7.56883 16.7325 8.16568C16.9587 8.54136 16.9999 9.19546 16.9999 9.61976C16.9999 10.8448 15.5482 11.7366 14.9311 11.7366H12.0851C12.5537 14.1107 12.0061 15.44 11.6179 16.0345C11.2216 16.6392 10.6659 17 10.1284 17ZM9.72531 16.0196C9.8428 16.1788 10.0048 16.2157 10.1284 16.2157C10.4545 16.2157 10.811 15.9702 11.0771 15.5616C11.416 15.0408 11.8995 13.8134 11.3235 11.4503C11.2945 11.3342 11.3147 11.2048 11.3789 11.1068C11.4437 11.0088 11.5423 10.9531 11.6476 10.9531H14.927C15.297 10.9531 16.3213 10.2888 16.3213 9.61898C16.3213 9.05429 16.2322 8.72018 16.1816 8.62371C16.1005 8.58214 16.035 8.50763 16.0013 8.41038C15.9587 8.29352 15.9722 8.15784 16.0323 8.05039C16.187 7.77275 16.3078 6.89041 15.8338 6.43081C15.7494 6.34925 15.7049 6.22454 15.7136 6.09749C15.7791 5.13123 15.6076 4.53046 15.189 4.26851C15.0648 4.19008 14.9952 4.03165 15.0148 3.8693C15.058 3.49362 14.8906 2.92971 14.632 2.58383C14.5084 2.41992 14.3795 2.3258 14.2782 2.3258H8.0488C7.72606 2.3258 7.08799 2.71011 7.01912 2.90461L7.02317 9.03233C8.34521 9.9829 9.03526 11.5899 9.70573 13.8448C9.71991 13.8863 9.72329 13.9271 9.72329 13.9718V16.0181H9.72464L9.72531 16.0196Z" fill="white" stroke="#7F8899"/>
<path d="M5.30796 10.4754H2.04281C1.46789 10.4754 1 9.9428 1 9.28837V2.18637C1 1.53194 1.46789 1 2.04281 1H5.30796C5.88287 1 6.35077 1.53194 6.35077 2.18637V9.28769C6.35077 9.94213 5.88287 10.4754 5.30796 10.4754ZM2.04281 1.67744C1.79548 1.67744 1.59453 1.90619 1.59453 2.18705V9.28837C1.59453 9.5699 1.79548 9.79865 2.04281 9.79865H5.30796C5.55529 9.79865 5.75624 9.5699 5.75624 9.28837V2.18637C5.75624 1.90551 5.55529 1.67677 5.30796 1.67677L2.04281 1.67744Z" fill="white" stroke="#7F8899"/>
</svg>
