<svg width="18" height="18" viewBox="0 0 18 18" fill="none" xmlns="http://www.w3.org/2000/svg">
<path d="M10.1284 0.999998C9.68888 0.999998 9.31348 1.23999 9.09876 1.6541C9.0677 1.71528 9.0515 1.78586 9.0515 1.85645V3.96464C8.39453 6.16224 7.7666 7.59359 6.52356 8.40063C6.41688 8.47121 6.35071 8.60297 6.35071 8.74415V15.133C6.35071 15.9009 7.54513 16.4585 8.05221 16.4585H14.2829C14.5888 16.4585 14.8879 16.2773 15.1465 15.9314C15.4828 15.4836 15.6954 14.8381 15.7015 14.2836C16.2079 13.8515 16.4442 13.0946 16.401 12.0304C16.9297 11.3857 16.9169 10.4312 16.7325 9.83432C16.9587 9.45864 16.9999 8.80454 16.9999 8.38024C16.9999 7.15516 15.5482 6.26342 14.9311 6.26342H12.0852C12.5537 3.88935 12.0062 2.55997 11.6179 1.96547C11.2216 1.36077 10.6659 0.999998 10.1284 0.999998ZM9.72535 1.98037C9.84283 1.82116 10.0049 1.7843 10.1284 1.7843C10.4546 1.7843 10.8111 2.02978 11.0771 2.4384C11.416 2.95917 11.8995 4.1866 11.3235 6.54968C11.2945 6.66576 11.3148 6.79517 11.3789 6.89321C11.4437 6.99125 11.5423 7.04693 11.6476 7.04693H14.9271C15.2971 7.04693 16.3214 7.71123 16.3214 8.38102C16.3214 8.94571 16.2322 9.27982 16.1816 9.37629C16.1006 9.41786 16.0351 9.49237 16.0013 9.58962C15.9588 9.70648 15.9723 9.84216 16.0324 9.94961C16.187 10.2273 16.3078 11.1096 15.8339 11.5692C15.7495 11.6508 15.7049 11.7755 15.7137 11.9025C15.7792 12.8688 15.6077 13.4695 15.189 13.7315C15.0648 13.8099 14.9953 13.9684 15.0148 14.1307C15.0581 14.5064 14.8906 15.0703 14.632 15.4162C14.5084 15.5801 14.3795 15.6742 14.2782 15.6742H8.04883C7.72609 15.6742 7.08802 15.2899 7.01915 15.0954L7.0232 8.96767C8.34524 8.01711 9.03529 6.41008 9.70576 4.15522C9.71994 4.11366 9.72332 4.07288 9.72332 4.02817V1.98194H9.72467L9.72535 1.98037Z" fill="black" stroke="#7F8899"/>
<path d="M5.30796 7.52458H2.04281C1.46789 7.52458 1 8.0572 1 8.71163V15.8136C1 16.4681 1.46789 17 2.04281 17H5.30796C5.88287 17 6.35077 16.4681 6.35077 15.8136V8.71231C6.35077 8.05787 5.88287 7.52458 5.30796 7.52458ZM2.04281 16.3226C1.79548 16.3226 1.59453 16.0938 1.59453 15.813V8.71163C1.59453 8.4301 1.79548 8.20135 2.04281 8.20135H5.30796C5.55529 8.20135 5.75624 8.4301 5.75624 8.71163V15.8136C5.75624 16.0945 5.55529 16.3232 5.30796 16.3232L2.04281 16.3226Z" fill="black" stroke="#7F8899"/>
</svg>
