<svg width="63" height="63" viewBox="0 0 63 63" fill="none" xmlns="http://www.w3.org/2000/svg">
<circle cx="31.5" cy="31.5" r="31.5" fill="#D72130"/>
<path d="M44.4008 23.4409H39.5817L36.6973 20.528C36.6973 20.528 36.683 20.5137 36.6759 20.5137L36.6616 20.4995C36.2333 20.0711 35.655 19.7998 34.9981 19.7998H29.001C28.3014 19.7998 27.6802 20.0997 27.2447 20.578V20.5851L24.4247 23.4409H19.4985C18.1705 23.4409 17.0996 24.4833 17.0996 25.8112V40.24C17.0996 41.5679 18.1705 42.646 19.4985 42.646H44.4008C45.7216 42.646 46.7996 41.5679 46.7996 40.24V25.8112C46.7996 24.4833 45.7216 23.4409 44.4008 23.4409ZM31.9496 39.0405C28.3156 39.0405 25.3528 36.0705 25.3528 32.4294C25.3528 28.7812 28.3156 25.8183 31.9496 25.8183C35.5907 25.8183 38.5464 28.7812 38.5464 32.4294C38.5464 36.0705 35.5907 39.0405 31.9496 39.0405ZM43.951 27.2605C43.4012 27.2605 42.9515 26.8107 42.9515 26.2538C42.9515 25.697 43.4012 25.2472 43.951 25.2472C44.5007 25.2472 44.9505 25.697 44.9505 26.2538C44.9505 26.8107 44.5007 27.2605 43.951 27.2605Z" fill="white"/>
<path d="M31.9501 27.4316C29.1943 27.4316 26.9668 29.6663 26.9668 32.4292C26.9668 35.1851 29.1943 37.4268 31.9501 37.4268C34.6988 37.4268 36.9334 35.1922 36.9334 32.4292C36.9334 29.6663 34.6988 27.4316 31.9501 27.4316Z" fill="white"/>
</svg>
